<svg viewBox="0 0 512 512" xmlns="http://www.w3.org/2000/svg"><defs><style>.cls-1{fill:none;stroke:#000;stroke-linecap:round;stroke-linejoin:round;stroke-width:30px;}</style></defs><title/><g data-name="1" id="_1"><path class="cls-1" d="M404,324c0-92.25-65.83-167-147-167S110,231.78,110,324s65.83,110.13,147,110.13S404,416.27,404,324Z"/><path class="cls-1" d="M207.13,100.35c0,31.29,22.32,56.65,49.87,56.65s49.87-25.36,49.87-56.65S284.54,63,257,63,207.13,69.07,207.13,100.35Z"/><path class="cls-1" d="M219.35,333.23A37.65,37.65,0,1,0,257,295.58a37.65,37.65,0,1,1,37.65-37.65"/><line class="cls-1" x1="257" x2="257" y1="388.95" y2="202.21"/></g></svg>
