<svg>
  <symbol id="clipboard" viewBox="0 0 24 24" xmlns="http://www.w3.org/2000/svg">
    <path d="M17,4H16a2,2,0,0,0-2-2H10A2,2,0,0,0,8,4H7A3,3,0,0,0,4,7V19a3,3,0,0,0,3,3H17a3,3,0,0,0,3-3V7A3,3,0,0,0,17,4ZM10,4h4V5h0V6H10V4Zm8,15a1,1,0,0,1-1,1H7a1,1,0,0,1-1-1V7A1,1,0,0,1,7,6H8a2,2,0,0,0,2,2h4a2,2,0,0,0,2-2h1a1,1,0,0,1,1,1Z" fill="#fff" />
  </symbol>
  <symbol id="dashboard" xmlns="http://www.w3.org/2000/svg" viewBox="0 0 24 24">
    <path d="M8.5 3h-3a2.5 2.5 0 0 0 0 5h3a2.5 2.5 0 0 0 0-5zm0 4h-3a1.5 1.5 0 0 1 0-3h3a1.5 1.5 0 0 1 0 3zm0 3h-3A2.5 2.5 0 0 0 3 12.5v6A2.5 2.5 0 0 0 5.5 21h3a2.5 2.5 0 0 0 2.5-2.5v-6A2.5 2.5 0 0 0 8.5 10zm1.5 8.5A1.5 1.5 0 0 1 8.5 20h-3A1.5 1.5 0 0 1 4 18.5v-6A1.5 1.5 0 0 1 5.5 11h3a1.5 1.5 0 0 1 1.5 1.5zm8.5-2.5h-3a2.5 2.5 0 0 0 0 5h3a2.5 2.5 0 0 0 0-5zm0 4h-3a1.5 1.5 0 0 1 0-3h3a1.5 1.5 0 0 1 0 3zm0-17h-3A2.5 2.5 0 0 0 13 5.5v6a2.5 2.5 0 0 0 2.5 2.5h3a2.5 2.5 0 0 0 2.5-2.5v-6A2.5 2.5 0 0 0 18.5 3zm1.5 8.5a1.5 1.5 0 0 1-1.5 1.5h-3a1.5 1.5 0 0 1-1.5-1.5v-6A1.5 1.5 0 0 1 15.5 4h3A1.5 1.5 0 0 1 20 5.5z" />
  </symbol>

  <symbol id="profile" viewBox="0 0 32 32" xmlns="http://www.w3.org/2000/svg">
    <title />
    <g data-name="user people person users man" id="user_people_person_users_man">
      <path d="M23.74,16.18a1,1,0,1,0-1.41,1.42A9,9,0,0,1,25,24c0,1.22-3.51,3-9,3s-9-1.78-9-3a9,9,0,0,1,2.63-6.37,1,1,0,0,0,0-1.41,1,1,0,0,0-1.41,0A10.92,10.92,0,0,0,5,24c0,3.25,5.67,5,11,5s11-1.75,11-5A10.94,10.94,0,0,0,23.74,16.18Z" />
      <path d="M16,17a7,7,0,1,0-7-7A7,7,0,0,0,16,17ZM16,5a5,5,0,1,1-5,5A5,5,0,0,1,16,5Z" />
    </g>
  </symbol>

  <symbol id="team_summary" viewBox="0 0 32 32" xmlns="http://www.w3.org/2000/svg">
    <defs>
      <style>
        .cls-1 {
          fill: #101820;
        }
      </style>
    </defs>
    <title />
    <g data-name="Layer 20" id="Layer_20">
      <path class="cls-1" d="M16,22a6,6,0,1,1,6-6A6,6,0,0,1,16,22Zm0-10a4,4,0,1,0,4,4A4,4,0,0,0,16,12Z" />
      <path class="cls-1" d="M21,31H11a4,4,0,0,1-4-4V24.45a1,1,0,0,1,.63-.92l3.64-1.46A1,1,0,1,1,12,23.93l-3,1.2V27a2,2,0,0,0,2,2H21a2,2,0,0,0,2-2V25.13l-3-1.2a1,1,0,0,1,.74-1.86l3.64,1.46a1,1,0,0,1,.63.92V27A4,4,0,0,1,21,31Z" />
      <path class="cls-1" d="M9,11a5,5,0,1,1,5-5A5,5,0,0,1,9,11ZM9,3a3,3,0,1,0,3,3A3,3,0,0,0,9,3Z" />
      <path class="cls-1" d="M8,19.39H5a4,4,0,0,1-4-4V13.64a1,1,0,0,1,.63-.93l3.19-1.25A1,1,0,0,1,6.11,12a1,1,0,0,1-.56,1.3L3,14.32v1.07a2,2,0,0,0,2,2H8a1,1,0,0,1,0,2Z" />
      <path class="cls-1" d="M23,11a5,5,0,1,1,5-5A5,5,0,0,1,23,11Zm0-8a3,3,0,1,0,3,3A3,3,0,0,0,23,3Z" />
      <path class="cls-1" d="M27,19.39H24a1,1,0,0,1,0-2h3a2,2,0,0,0,2-2V14.32l-2.55-1a1,1,0,0,1-.56-1.3,1,1,0,0,1,1.29-.57l3.19,1.25a1,1,0,0,1,.63.93v1.75A4,4,0,0,1,27,19.39Z" />
    </g>
  </symbol>

  <symbol id="report" enable-background="new 0 0 512 512" height="512px" id="Shipping_x5F_restrictions" version="1.1" viewBox="0 0 512 512" width="512px" xml:space="preserve" xmlns="http://www.w3.org/2000/svg" xmlns:xlink="http://www.w3.org/1999/xlink">
    <g>
      <polygon points="340.045,129.583 332.975,122.512 306.434,149.053 296.441,139.063 289.371,146.134 306.434,163.195  " />
      <polygon points="84.684,20.457 84.684,491.543 427.316,491.543 427.316,131.008 417.316,131.008 417.316,481.543 94.684,481.543    94.684,30.457 417.316,30.457 417.316,89.341 427.316,89.341 427.316,20.457  " />
      <rect height="13.053" width="10" x="417.316" y="104.288" />
      <path d="M103.561,403.504v61.667h260.578l44.301-42.359V57.341H305.172c0.534-2.922,0.828-5.926,0.828-9v-8H206v8   c0,3.074,0.293,6.078,0.826,9H103.561v329.561h10V67.341h96.199c7.495,18.173,25.394,31,46.24,31c20.846,0,38.744-12.827,46.239-31   h96.2v347.5h-42.308v27.667h10v-17.667h25.716l-31.721,30.33H113.561v-51.667H103.561z M256,88.341   c-21.387,0-38.906-16.869-39.951-38h79.9C294.904,71.472,277.385,88.341,256,88.341z" />
      <rect height="10" width="46" x="233" y="57.341" />
      <polygon points="190.281,168.895 190.281,245.355 262.121,245.355 262.121,235.355 200.281,235.355 200.281,168.895  " />
      <path d="M222.688,137.598v0.005h-32.412v18.187h10v-8.187h22.412v57.135h46.414v-57.135h4.321   c1.847,11.743,8.599,21.876,18.087,28.231v59.517h-14.277v10h24.277v-64.615c4.151,1.386,8.587,2.147,13.199,2.147   c23.047,0,41.797-18.75,41.797-41.797c0-23.048-18.75-41.798-41.797-41.798c-21.874,0-39.864,16.893-41.641,38.314h-3.967v-0.005   H222.688z M259.102,194.737h-26.414v-47.135h26.414V194.737z M314.709,109.288c17.533,0,31.797,14.265,31.797,31.798   s-14.264,31.797-31.797,31.797s-31.797-14.264-31.797-31.797S297.176,109.288,314.709,109.288z" />
      <polygon points="173.742,289.936 173.742,279.936 142.34,279.936 142.34,332.186 194.59,332.186 194.59,295.646 206.705,283.53    199.635,276.459 172.581,303.512 164.043,294.975 156.973,302.045 172.581,317.654 184.59,305.646 184.59,322.186 152.34,322.186    152.34,289.936  " />
      <polygon points="142.34,408.504 194.59,408.504 194.59,371.965 206.705,359.849 199.635,352.777 172.581,379.83 164.043,371.293    156.973,378.363 172.581,393.973 184.59,381.965 184.59,398.504 152.34,398.504 152.34,366.255 173.742,366.255 173.742,356.255    142.34,356.255  " />
      <rect height="10" width="136.827" x="224.305" y="303.852" />
      <rect height="10" width="136.827" x="224.305" y="285.809" />
      <rect height="10" width="136.827" x="224.305" y="374.297" />
      <rect height="10" width="136.827" x="224.305" y="356.255" />
    </g>
  </symbol>
</svg>
