<svg>
  <symbol id="clipboard" viewBox="0 0 24 24" xmlns="http://www.w3.org/2000/svg">
    <path d="M17,4H16a2,2,0,0,0-2-2H10A2,2,0,0,0,8,4H7A3,3,0,0,0,4,7V19a3,3,0,0,0,3,3H17a3,3,0,0,0,3-3V7A3,3,0,0,0,17,4ZM10,4h4V5h0V6H10V4Zm8,15a1,1,0,0,1-1,1H7a1,1,0,0,1-1-1V7A1,1,0,0,1,7,6H8a2,2,0,0,0,2,2h4a2,2,0,0,0,2-2h1a1,1,0,0,1,1,1Z" fill="#fff" />
  </symbol>
  <symbol id="dashboard" xmlns="http://www.w3.org/2000/svg" viewBox="0 0 24 24">
    <path d="M8.5 3h-3a2.5 2.5 0 0 0 0 5h3a2.5 2.5 0 0 0 0-5zm0 4h-3a1.5 1.5 0 0 1 0-3h3a1.5 1.5 0 0 1 0 3zm0 3h-3A2.5 2.5 0 0 0 3 12.5v6A2.5 2.5 0 0 0 5.5 21h3a2.5 2.5 0 0 0 2.5-2.5v-6A2.5 2.5 0 0 0 8.5 10zm1.5 8.5A1.5 1.5 0 0 1 8.5 20h-3A1.5 1.5 0 0 1 4 18.5v-6A1.5 1.5 0 0 1 5.5 11h3a1.5 1.5 0 0 1 1.5 1.5zm8.5-2.5h-3a2.5 2.5 0 0 0 0 5h3a2.5 2.5 0 0 0 0-5zm0 4h-3a1.5 1.5 0 0 1 0-3h3a1.5 1.5 0 0 1 0 3zm0-17h-3A2.5 2.5 0 0 0 13 5.5v6a2.5 2.5 0 0 0 2.5 2.5h3a2.5 2.5 0 0 0 2.5-2.5v-6A2.5 2.5 0 0 0 18.5 3zm1.5 8.5a1.5 1.5 0 0 1-1.5 1.5h-3a1.5 1.5 0 0 1-1.5-1.5v-6A1.5 1.5 0 0 1 15.5 4h3A1.5 1.5 0 0 1 20 5.5z" />
  </symbol>

  <symbol id="profile" viewBox="0 0 32 32" xmlns="http://www.w3.org/2000/svg">
    <title />
    <g data-name="user people person users man" id="user_people_person_users_man">
      <path d="M23.74,16.18a1,1,0,1,0-1.41,1.42A9,9,0,0,1,25,24c0,1.22-3.51,3-9,3s-9-1.78-9-3a9,9,0,0,1,2.63-6.37,1,1,0,0,0,0-1.41,1,1,0,0,0-1.41,0A10.92,10.92,0,0,0,5,24c0,3.25,5.67,5,11,5s11-1.75,11-5A10.94,10.94,0,0,0,23.74,16.18Z" />
      <path d="M16,17a7,7,0,1,0-7-7A7,7,0,0,0,16,17ZM16,5a5,5,0,1,1-5,5A5,5,0,0,1,16,5Z" />
    </g>
  </symbol>

  <symbol id="team_summary" viewBox="0 0 32 32" xmlns="http://www.w3.org/2000/svg">
    <defs>
      <style>
        .cls-1 {
          fill: #101820;
        }
      </style>
    </defs>
    <title />
    <g data-name="Layer 20" id="Layer_20">
      <path class="cls-1" d="M16,22a6,6,0,1,1,6-6A6,6,0,0,1,16,22Zm0-10a4,4,0,1,0,4,4A4,4,0,0,0,16,12Z" />
      <path class="cls-1" d="M21,31H11a4,4,0,0,1-4-4V24.45a1,1,0,0,1,.63-.92l3.64-1.46A1,1,0,1,1,12,23.93l-3,1.2V27a2,2,0,0,0,2,2H21a2,2,0,0,0,2-2V25.13l-3-1.2a1,1,0,0,1,.74-1.86l3.64,1.46a1,1,0,0,1,.63.92V27A4,4,0,0,1,21,31Z" />
      <path class="cls-1" d="M9,11a5,5,0,1,1,5-5A5,5,0,0,1,9,11ZM9,3a3,3,0,1,0,3,3A3,3,0,0,0,9,3Z" />
      <path class="cls-1" d="M8,19.39H5a4,4,0,0,1-4-4V13.64a1,1,0,0,1,.63-.93l3.19-1.25A1,1,0,0,1,6.11,12a1,1,0,0,1-.56,1.3L3,14.32v1.07a2,2,0,0,0,2,2H8a1,1,0,0,1,0,2Z" />
      <path class="cls-1" d="M23,11a5,5,0,1,1,5-5A5,5,0,0,1,23,11Zm0-8a3,3,0,1,0,3,3A3,3,0,0,0,23,3Z" />
      <path class="cls-1" d="M27,19.39H24a1,1,0,0,1,0-2h3a2,2,0,0,0,2-2V14.32l-2.55-1a1,1,0,0,1-.56-1.3,1,1,0,0,1,1.29-.57l3.19,1.25a1,1,0,0,1,.63.93v1.75A4,4,0,0,1,27,19.39Z" />
    </g>
  </symbol>

  <symbol id="bar" height="24" viewBox="0 0 24 24" width="24" xmlns="http://www.w3.org/2000/svg">
    <path d="M6 21H3a1 1 0 0 1-1-1v-8a1 1 0 0 1 1-1h3a1 1 0 0 1 1 1v8a1 1 0 0 1-1 1zm7 0h-3a1 1 0 0 1-1-1V3a1 1 0 0 1 1-1h3a1 1 0 0 1 1 1v17a1 1 0 0 1-1 1zm7 0h-3a1 1 0 0 1-1-1V9a1 1 0 0 1 1-1h3a1 1 0 0 1 1 1v11a1 1 0 0 1-1 1z" />
  </symbol>

  <symbol id="money_bag" height="20" version="1.1" viewBox="0 0 20 20" width="20" xmlns="http://www.w3.org/2000/svg">
    <g id="layer1">
      <path d="M 12.964844 0.095703125 C 12.805889 0.093483625 12.654204 0.10575226 12.503906 0.12890625 C 11.902715 0.22152215 11.399294 0.43880053 10.416016 0.60742188 C 9.5128573 0.76230303 8.9000581 0.53804687 8.1347656 0.34375 C 7.3694731 0.14945313 6.4403485 0.025497315 5.2929688 0.54492188 C 5.0125471 0.67254789 4.9131349 1.0209548 5.0839844 1.2773438 L 6.8574219 3.9355469 C 6.4799034 4.2948616 5.386098 5.3589005 4.0996094 7.0742188 C 2.5695621 9.1142816 1 11.799685 1 14.5 C 1 17.150236 2.3087845 18.664286 4.0703125 19.341797 C 5.8318405 20.019308 8 20 10 20 C 12 20 14.168159 20.01931 15.929688 19.341797 C 17.691216 18.664286 19 17.150236 19 14.5 C 19 11.799685 17.430438 9.1142814 15.900391 7.0742188 C 14.613901 5.3589005 13.520096 4.2948616 13.142578 3.9355469 L 14.916016 1.2773438 C 15.088927 1.0174273 14.984039 0.66436818 14.697266 0.54101562 C 13.978672 0.23310127 13.441708 0.10236154 12.964844 0.095703125 z M 12.65625 1.1171875 C 12.922777 1.0761275 13.330981 1.236312 13.679688 1.3300781 L 12.232422 3.5 L 7.7675781 3.5 L 6.3046875 1.3046875 C 6.8796693 1.1670037 7.3639663 1.1812379 7.8886719 1.3144531 C 8.5922201 1.493074 9.440416 1.7898596 10.583984 1.59375 C 11.647433 1.4113805 12.227503 1.1832377 12.65625 1.1171875 z M 7.7070312 4.5 L 12.292969 4.5 C 12.480348 4.6748327 13.734431 5.8555424 15.099609 7.6757812 C 16.569562 9.6357185 18 12.200315 18 14.5 C 18 16.849764 17.058785 17.835714 15.570312 18.408203 C 14.081843 18.980692 12 19 10 19 C 8 19 5.9181595 18.980692 4.4296875 18.408203 C 2.9412155 17.835714 2 16.849764 2 14.5 C 2 12.200315 3.4304379 9.6357186 4.9003906 7.6757812 C 6.2655702 5.855542 7.5196519 4.6748327 7.7070312 4.5 z M 9.5 9 L 9.5 10 C 8.6774954 10 8 10.677495 8 11.5 C 8 12.322505 8.6774954 13 9.5 13 L 10.5 13 C 10.782065 13 11 13.217935 11 13.5 C 11 13.782065 10.782065 14 10.5 14 L 9.5 14 L 8 14 L 8 15 L 9.5 15 L 9.5 16 L 10.5 16 L 10.5 15 C 11.322504 15 12 14.322505 12 13.5 C 12 12.677495 11.322504 12 10.5 12 L 9.5 12 C 9.2179352 12 9 11.782065 9 11.5 C 9 11.217935 9.2179352 11 9.5 11 L 10.5 11 L 12 11 L 12 10 L 10.5 10 L 10.5 9 L 9.5 9 z " />
    </g>
  </symbol>

  <symbol version="1.1" id="binary" xmlns="http://www.w3.org/2000/svg" xmlns:xlink="http://www.w3.org/1999/xlink" x="0px" y="0px" viewBox="0 0 512 512" style="enable-background:new 0 0 512 512;" xml:space="preserve">
      <g>
        <g>
          <path d="M508,177.796H308c-2.212,0-4,1.792-4,4s1.788,4,4,4h196v264H8v-264h196c2.212,0,4-1.792,4-4s-1.788-4-4-4H4
			c-2.212,0-4,1.792-4,4v272c0,2.212,1.788,4,4,4h504c2.212,0,4-1.788,4-4v-272C512,179.588,510.212,177.796,508,177.796z" />
        </g>
      </g>
      <g>
        <g>
          <path d="M472,250.788c-23.084,0-35.164-16.596-35.164-32.992c0-2.208-1.788-4-4-4H308c-2.212,0-4,1.792-4,4s1.788,4,4,4h121.012
			c1.808,20.42,17.448,35.208,38.988,36.84V376.32c-21.232,1.716-37.144,17.024-38.984,37.476H80.064
			c-1.888-19.412-17.312-35.404-36.064-37.42V258.588c19.036-1.92,34.216-17.4,36.068-36.792H204c2.212,0,4-1.792,4-4s-1.788-4-4-4
			H76.256c-2.212,0-4,1.792-4,4c0,17.884-14.772,32.992-32.256,32.992c-2.212,0-4,1.792-4,4V380.16c0,2.212,1.788,4,4,4
			c17.484,0,32.256,15.4,32.256,33.636c0,2.212,1.788,4,4,4h356.58c2.212,0,4-1.788,4-4c0-16.716,12.08-33.636,35.164-33.636
			c2.212,0,4-1.788,4-4V254.788C476,252.58,474.212,250.788,472,250.788z" />
        </g>
      </g>
      <g>
        <g>
          <path d="M320.608,275.996c-0.636-2.116-2.86-3.312-4.98-2.684c-2.116,0.636-3.316,2.868-2.684,4.98
			c3.716,12.384,5.604,25.596,5.604,39.268c0,52.98-28.712,96.084-64,96.084c-35.288,0-64-43.104-64-96.084
			c0-22.736,5.416-44.808,15.252-62.14c1.088-1.92,0.412-4.364-1.508-5.452c-1.916-1.092-4.36-0.412-5.452,1.504
			c-10.508,18.52-16.292,41.992-16.292,66.088c0,57.392,32.3,104.084,72,104.084c39.7,0,72-46.692,72-104.08
			C326.548,303.112,324.548,289.124,320.608,275.996z" />
        </g>
      </g>
      <g>
        <g>
          <path d="M139.016,313.556c-2.212,0-4,1.788-4,4c0,11.212-9.12,20.332-20.328,20.332c-11.216,0-20.336-9.12-20.336-20.332
			c0-11.212,9.12-20.332,20.336-20.332c2.212,0,4-1.788,4-4c0-2.212-1.788-4-4-4c-15.624,0-28.336,12.712-28.336,28.332
			s12.712,28.332,28.336,28.332c15.62,0,28.328-12.708,28.328-28.332C143.016,315.344,141.228,313.556,139.016,313.556z" />
        </g>
      </g>
      <g>
        <g>
          <path d="M275.992,339.368v-8.64c7.368-7.484,11.556-21.028,11.556-37.588c0-23.668-11.016-35.668-32.752-35.668
			c-22.184,0-33.432,12-33.432,35.668c0,16.076,7.548,31.352,10.632,36.916v9.312c-31.784,5.596-38.588,19.384-38.588,30.152
			c0,2.212,1.788,4,4,4c2.212,0,4-1.788,4-4c0-14.496,19.132-20.392,35.18-22.792c1.964-0.292,3.412-1.976,3.412-3.956v-13.764
			c0-0.7-0.184-1.388-0.528-1.992c-2.368-4.124-10.1-18.756-10.1-33.876c0-19.136,7.844-27.668,25.432-27.668
			c17.348,0,24.752,8.272,24.752,27.668c0,14.796-3.904,27.388-10.18,32.848c-0.876,0.764-1.376,1.864-1.376,3.02v13.764
			c0,1.98,1.448,3.664,3.412,3.96c16.412,2.452,35.98,8.396,35.98,22.792c0,2.212,1.788,4,4,4c2.208,0,4-1.792,3.992-4.004
			C315.384,358.792,308.44,345.04,275.992,339.368z" />
        </g>
      </g>
      <g>
        <g>
          <path d="M40,213.796c-2.212,0-4,1.792-4,4v16c0,2.208,1.788,4,4,4s4-1.792,4-4v-16C44,215.588,42.212,213.796,40,213.796z" />
        </g>
      </g>
      <g>
        <g>
          <path d="M56,213.796H40c-2.212,0-4,1.792-4,4s1.788,4,4,4h16c2.212,0,4-1.792,4-4S58.212,213.796,56,213.796z" />
        </g>
      </g>
      <g>
        <g>
          <path d="M472,213.796c-2.212,0-4,1.792-4,4v16c0,2.208,1.788,4,4,4c2.212,0,4-1.792,4-4v-16
			C476,215.588,474.212,213.796,472,213.796z" />
        </g>
      </g>
      <g>
        <g>
          <path d="M472,213.796h-16c-2.212,0-4,1.792-4,4s1.788,4,4,4h16c2.212,0,4-1.792,4-4S474.212,213.796,472,213.796z" />
        </g>
      </g>
      <g>
        <g>
          <path d="M472,397.796c-2.212,0-4,1.788-4,4v16c0,2.212,1.788,4,4,4c2.212,0,4-1.788,4-4v-16
			C476,399.584,474.212,397.796,472,397.796z" />
        </g>
      </g>
      <g>
        <g>
          <path d="M472,413.796h-16c-2.212,0-4,1.788-4,4c0,2.212,1.788,4,4,4h16c2.212,0,4-1.788,4-4
			C476,415.584,474.212,413.796,472,413.796z" />
        </g>
      </g>
      <g>
        <g>
          <path d="M40,397.796c-2.212,0-4,1.788-4,4v16c0,2.212,1.788,4,4,4s4-1.788,4-4v-16C44,399.584,42.212,397.796,40,397.796z" />
        </g>
      </g>
      <g>
        <g>
          <path d="M56,413.796H40c-2.212,0-4,1.788-4,4c0,2.212,1.788,4,4,4h16c2.212,0,4-1.788,4-4C60,415.584,58.212,413.796,56,413.796z" />
        </g>
      </g>
      <g>
        <g>
          <path d="M419.156,313.556c-2.212,0-4,1.788-4,4c0,11.212-9.12,20.332-20.336,20.332c-11.208,0-20.328-9.12-20.328-20.332
			c0-11.212,9.12-20.332,20.328-20.332c2.212,0,4-1.788,4-4c0-2.212-1.788-4-4-4c-15.62,0-28.328,12.712-28.328,28.332
			s12.708,28.332,28.328,28.332c15.624,0,28.336-12.708,28.336-28.332C423.156,315.344,421.368,313.556,419.156,313.556z" />
        </g>
      </g>
      <g>
        <g>
          <path d="M345.364,162.756L257.64,55.668c-0.756-0.924-1.892-1.464-3.092-1.464c-1.196,0-2.332,0.54-3.092,1.464L163.324,163.26
			c-0.98,1.196-1.184,2.852-0.52,4.248c0.66,1.396,2.064,2.288,3.612,2.288H200v92c0,2.212,1.788,4,4,4h104c2.212,0,4-1.788,4-4.004
			v-92h30.68c0.032,0.004,0.06,0,0.08,0c2.212,0,4-1.792,4-4C346.76,164.58,346.22,163.488,345.364,162.756z M308,161.796
			c-2.212,0-4,1.792-4,4v92h-96v-92c0-2.208-1.788-4-4-4h-29.144l79.688-97.28l79.688,97.28H308z" />
        </g>
      </g>
      <g>
        <g>
          <path d="M280,197.796c2.212,0,4-1.792,4-4V131.38c0-0.92-0.32-1.816-0.904-2.528l-23.748-29.04
			c-0.76-0.928-1.896-1.468-3.096-1.468c-1.196,0-2.336,0.54-3.096,1.468l-24.252,29.648c-0.584,0.712-0.904,1.608-0.904,2.532
			v101.804c0,2.208,1.788,4,4,4h48c2.212,0,4-1.792,4-4s-1.788-4-4-4h-44V133.42l20.252-24.76L276,132.808v60.988
			C276,196.004,277.788,197.796,280,197.796z" />
        </g>
      </g>
      <g>
      </g>
      <g>
      </g>
      <g>
      </g>
      <g>
      </g>
      <g>
      </g>
      <g>
      </g>
      <g>
      </g>
      <g>
      </g>
      <g>
      </g>
      <g>
      </g>
      <g>
      </g>
      <g>
      </g>
      <g>
      </g>
      <g>
      </g>
      <g>
      </g>
   </symbol>
   
   <symbol id="current_income" viewBox="0 0 24 24" xmlns="http://www.w3.org/2000/svg"><g><path d="M0 0h24v24H0z" fill="none"/><path d="M5.671 4.257c3.928-3.219 9.733-2.995 13.4.672 3.905 3.905 3.905 10.237 0 14.142-3.905 3.905-10.237 3.905-14.142 0A9.993 9.993 0 0 1 2.25 9.767l.077-.313 1.934.51a8 8 0 1 0 3.053-4.45l-.221.166 1.017 1.017-4.596 1.06 1.06-4.596 1.096 1.096zM13 6v2h2.5v2H10a.5.5 0 0 0-.09.992L10 11h4a2.5 2.5 0 1 1 0 5h-1v2h-2v-2H8.5v-2H14a.5.5 0 0 0 .09-.992L14 13h-4a2.5 2.5 0 1 1 0-5h1V6h2z"/></g>
   </symbol>
</svg>
